<?xml version="1.0" standalone="no"?>
<!DOCTYPE svg PUBLIC "-//W3C//DTD SVG 20010904//EN"
 "http://www.w3.org/TR/2001/REC-SVG-20010904/DTD/svg10.dtd">
<svg version="1.0" xmlns="http://www.w3.org/2000/svg"
 width="1216.000000pt" height="1216.000000pt" viewBox="0 0 1216.000000 1216.000000"
 preserveAspectRatio="xMidYMid meet">
<metadata>
Created by potrace 1.14, written by Peter Selinger 2001-2017
</metadata>
<g transform="translate(0.000000,1216.000000) scale(0.100000,-0.100000)"
fill="#000000" stroke="none">
<path d="M3654 8584 c-19 -67 -24 -102 -24 -179 1 -33 2 -1082 3 -2330 2
-1249 6 -2275 10 -2281 8 -13 76 -24 82 -13 5 7 12 67 20 166 2 34 8 187 12
340 11 464 3 4316 -9 4328 -4 4 -23 10 -42 15 l-36 8 -16 -54z"/>
<path d="M1878 7502 l-367 -367 0 -703 c0 -536 3 -701 12 -695 89 53 297 250
594 561 87 91 132 123 134 94 1 -9 3 -28 4 -42 1 -14 5 -72 9 -130 4 -58 9
-125 11 -150 2 -25 7 -88 10 -140 3 -52 8 -115 10 -140 2 -25 7 -88 10 -140 3
-52 8 -124 11 -160 9 -116 13 -173 20 -275 4 -55 8 -111 9 -125 2 -14 3 -35 4
-46 1 -17 67 43 289 262 158 156 299 288 313 294 l27 11 -3 742 c-2 408 -3
748 -4 756 -1 7 -21 -12 -45 -44 -92 -118 -299 -331 -447 -460 -89 -77 -238
-175 -240 -158 -2 12 -5 100 -14 363 -13 402 -9 850 9 945 7 38 17 115 14 114
-2 0 -168 -165 -370 -367z"/>
<path d="M4868 7595 c-146 -37 -230 -115 -263 -243 -19 -74 -23 -106 -24 -228
l-1 -100 -85 -1 c-47 -1 -95 -2 -107 -2 -23 -1 -23 -2 -22 -149 l0 -147 107
-3 107 -3 0 -568 0 -568 178 -1 c97 0 184 1 194 4 15 4 16 51 16 565 0 308 2
563 5 565 3 3 68 6 144 7 l138 2 1 140 c0 77 -3 145 -7 150 -5 7 -60 10 -143
9 -118 -1 -136 1 -137 15 -6 65 3 176 15 206 22 53 79 75 171 69 158 -12 148
-14 156 31 4 22 10 56 14 75 14 74 24 144 22 146 -1 1 -38 10 -82 19 -109 24
-323 29 -397 10z"/>
<path d="M10482 7570 c-4 -3 -8 -450 -7 -995 l0 -990 455 0 c250 0 480 3 511
7 228 29 379 109 517 274 71 85 158 297 187 454 11 59 13 391 3 465 -25 184
-76 328 -164 461 -122 185 -289 287 -524 320 -62 8 -967 13 -978 4z m883 -345
c118 -24 172 -50 233 -112 99 -101 144 -276 142 -556 -1 -192 -21 -316 -68
-420 -37 -81 -82 -131 -147 -165 -90 -45 -152 -53 -449 -55 l-196 -2 0 70 c-1
72 -1 1234 0 1248 0 9 439 2 485 -8z"/>
<path d="M8915 7489 c-39 -23 -88 -52 -110 -64 -22 -13 -74 -43 -115 -67 l-75
-45 -3 -146 -3 -147 -87 0 -88 0 -1 -150 0 -150 88 0 89 0 1 -412 c0 -227 2
-422 4 -433 2 -11 7 -40 10 -65 15 -100 65 -174 145 -215 124 -62 298 -63 489
-3 l33 10 -7 72 c-3 39 -8 85 -10 101 -16 126 -16 127 -33 120 -63 -26 -134
-36 -176 -24 -37 10 -55 41 -62 106 -3 32 -5 358 -4 661 l0 82 130 0 130 0 0
153 0 152 -130 0 -130 0 -1 25 c0 14 -1 127 -1 253 0 125 -4 227 -7 227 -3 0
-38 -19 -76 -41z"/>
<path d="M5920 7053 c-54 -7 -183 -34 -198 -42 -96 -46 -122 -63 -167 -107
-75 -73 -163 -260 -123 -261 12 0 266 -47 311 -57 14 -4 24 6 37 37 44 97 115
138 243 138 119 0 193 -23 230 -73 13 -18 21 -48 24 -95 l5 -69 -43 -17 c-63
-23 -105 -33 -300 -72 -96 -19 -203 -44 -239 -55 -241 -80 -352 -248 -318
-481 23 -152 135 -276 298 -327 133 -42 323 -27 456 37 55 27 164 108 164 123
1 18 21 -18 26 -45 2 -13 10 -41 17 -63 l14 -39 191 -3 c106 -1 192 -1 192 2
0 2 -11 28 -24 57 -53 123 -58 175 -58 649 1 308 -2 398 -14 450 -38 165 -140
252 -348 296 -64 14 -313 25 -376 17z m359 -892 c-2 -145 -21 -201 -86 -259
-96 -85 -238 -110 -326 -59 -53 32 -81 67 -96 122 -35 132 53 211 279 250 59
10 154 33 180 44 50 20 51 19 49 -98z"/>
<path d="M7480 7049 c-142 -17 -178 -27 -278 -77 -73 -37 -155 -120 -181 -185
-57 -144 -42 -303 40 -407 89 -113 235 -178 577 -255 180 -40 218 -53 246 -84
24 -26 28 -78 10 -116 -60 -128 -392 -141 -502 -20 -33 35 -62 86 -62 107 -1
40 -38 41 -250 3 -14 -3 -50 -7 -80 -11 -30 -3 -58 -8 -62 -10 -10 -7 11 -74
44 -136 58 -110 162 -197 298 -251 58 -22 100 -33 205 -52 36 -6 235 -6 285 0
238 31 404 136 484 305 28 59 30 74 31 170 0 94 -3 111 -27 163 -36 76 -110
146 -200 190 -82 39 -147 60 -358 112 -212 52 -307 83 -329 107 -31 33 -37 76
-14 107 36 48 100 68 238 75 131 6 238 -52 275 -148 10 -26 13 -28 48 -22 20
4 46 8 57 10 166 27 265 51 265 65 0 29 -71 155 -108 194 -77 80 -182 133
-310 157 -75 13 -267 19 -342 9z"/>
<path d="M9423 6486 c-5 -7 -7 -282 -4 -358 1 -15 31 -17 376 -16 l375 0 1 34
c0 44 0 274 0 317 l-1 32 -371 0 c-209 0 -373 -4 -376 -9z"/>
<path d="M565 6201 c-83 -81 -211 -199 -285 -263 -74 -64 -150 -133 -168 -154
-55 -62 -84 -132 -100 -243 -12 -83 -4 -1294 9 -1288 4 1 82 74 174 162 93 88
195 186 229 218 34 32 102 97 151 145 88 85 163 151 138 122 -16 -18 -17 -38
-2 -23 8 8 11 218 11 738 0 399 -2 728 -4 730 -2 2 -71 -63 -153 -144z"/>
<path d="M1108 5237 l-338 -339 0 -688 0 -689 82 54 c77 51 196 159 489 446
l127 124 -3 695 c-4 795 -3 741 -12 738 -5 -1 -160 -154 -345 -341z"/>
<path d="M4595 5121 c-3 -2 -5 -38 -5 -79 l0 -75 -21 19 c-29 27 -120 26 -150
-1 -57 -52 -72 -170 -30 -239 41 -65 122 -86 175 -45 25 20 26 20 26 1 0 -14
7 -19 27 -17 l26 1 0 209 c-1 116 -2 215 -2 220 -1 11 -38 15 -46 6z m-55
-166 c36 -18 54 -71 48 -137 -8 -74 -54 -110 -114 -88 -46 18 -70 124 -42 186
7 15 26 33 43 40 37 16 31 17 65 -1z"/>
<path d="M6306 5121 c-2 -3 -3 -37 -2 -74 0 -38 -1 -70 -3 -72 -2 -2 -10 2
-18 10 -36 36 -115 30 -157 -11 -47 -48 -60 -148 -27 -220 30 -65 110 -93 175
-59 35 18 36 18 36 1 0 -7 10 -13 23 -12 l22 1 0 219 0 219 -23 2 c-13 1 -24
-1 -26 -4z m-24 -192 c38 -51 27 -164 -19 -194 -65 -43 -136 27 -127 125 9 99
94 139 146 69z"/>
<path d="M6787 5116 c-2 -6 -3 -105 -3 -220 1 -209 1 -209 24 -212 14 -3 22 1
22 11 0 19 11 19 36 0 10 -8 38 -15 61 -15 76 0 133 71 133 165 0 86 -41 149
-106 161 -37 7 -103 -11 -106 -29 -1 -7 -4 24 -7 67 -6 73 -8 80 -28 81 -12 1
-24 -3 -26 -9z m163 -161 c16 -8 34 -23 39 -33 41 -76 -4 -208 -69 -199 -63 8
-90 53 -85 140 4 55 36 97 83 106 2 1 16 -6 32 -14z"/>
<path d="M7133 5117 c-8 -12 -11 -427 -3 -428 3 0 15 -2 28 -3 l22 -3 -2 220
c-3 201 -5 220 -20 223 -10 1 -21 -3 -25 -9z"/>
<path d="M7821 5113 c-13 -11 -24 -36 -29 -63 -5 -32 -13 -46 -27 -50 -30 -8
-29 -40 1 -40 l24 0 0 -134 c0 -138 3 -148 41 -139 14 4 16 23 15 130 -1 69 2
130 5 135 4 6 18 11 33 11 19 0 26 5 26 18 0 11 -6 20 -12 20 -7 1 -17 2 -23
4 -5 1 -15 3 -22 3 -7 1 -10 13 -7 30 7 35 12 40 49 44 22 2 31 9 33 26 3 20
-1 22 -41 22 -28 0 -53 -7 -66 -17z"/>
<path d="M9325 5104 c-18 -19 -25 -38 -25 -66 0 -35 -2 -39 -22 -36 -17 2 -23
-2 -23 -17 0 -13 8 -21 22 -23 22 -3 23 -7 25 -140 3 -144 2 -140 46 -133 4 0
8 61 7 134 l0 132 51 3 50 3 1 -131 c0 -72 3 -134 7 -137 4 -4 15 -8 26 -10
19 -3 20 3 20 137 l0 140 34 0 c27 0 34 4 32 18 -2 11 -13 18 -34 20 -34 4
-38 14 -22 57 8 22 15 26 36 22 18 -3 28 1 35 16 14 24 -2 37 -47 37 -47 0
-76 -29 -83 -81 l-6 -44 -52 -3 -51 -3 5 33 c5 35 18 49 43 47 31 -2 37 2 36
24 -1 19 -7 22 -43 25 -36 3 -47 -1 -68 -24z"/>
<path d="M10376 5122 c-3 -3 -6 -39 -6 -80 l0 -75 -21 19 c-28 25 -105 26
-143 1 -55 -37 -77 -157 -42 -231 33 -70 141 -102 186 -54 17 18 20 19 20 5 0
-9 3 -17 8 -18 4 0 15 -2 25 -4 9 -2 18 2 18 8 4 39 3 427 -1 428 -3 0 -13 2
-22 4 -9 2 -19 0 -22 -3z m-22 -201 c21 -39 25 -94 11 -135 -16 -46 -42 -67
-75 -62 -14 3 -30 5 -37 5 -20 2 -50 65 -52 110 -2 86 48 140 112 118 15 -5
34 -21 41 -36z"/>
<path d="M10855 5122 c-3 -3 -5 -103 -5 -222 l0 -216 25 0 c18 0 25 5 25 19 0
18 1 17 26 -2 18 -14 41 -21 70 -21 36 0 49 6 78 35 107 106 44 307 -92 292
-24 -3 -51 -12 -61 -21 -18 -16 -18 -14 -16 53 1 39 -1 74 -4 78 -7 10 -38 13
-46 5z m166 -167 c35 -19 51 -54 50 -112 0 -42 -21 -96 -41 -108 -39 -24 -98
-4 -118 40 -17 36 -15 101 4 140 13 28 36 45 72 54 2 1 16 -6 33 -14z"/>
<path d="M11202 5117 c-13 -17 -15 -427 -2 -428 48 -6 45 -20 45 215 0 199 -2
219 -17 222 -9 1 -21 -3 -26 -9z"/>
<path d="M8632 5094 c-16 -11 -22 -25 -22 -55 0 -32 -3 -39 -19 -39 -14 0 -19
-6 -18 -20 1 -12 8 -20 18 -20 15 0 18 -15 21 -125 2 -77 7 -128 15 -136 6 -6
31 -12 55 -13 36 -1 43 2 43 19 0 12 -8 21 -20 23 -35 7 -39 19 -40 127 l0
105 27 0 c40 0 39 35 -1 43 -27 6 -28 8 -26 56 2 56 0 58 -33 35z"/>
<path d="M4780 4988 c-104 -69 -93 -252 17 -294 79 -30 160 -6 195 59 12 22
11 23 -25 32 -20 5 -27 3 -27 -7 0 -46 -99 -70 -139 -34 -21 20 -43 71 -34 80
4 3 57 6 120 6 83 0 113 3 114 13 5 50 -22 114 -58 141 -15 11 -49 21 -77 24
-41 3 -58 -1 -86 -20z m129 -40 c21 -13 45 -65 33 -71 -4 -2 -43 -3 -87 -3
-68 1 -80 4 -83 19 -2 10 10 30 27 46 34 32 70 34 110 9z"/>
<path d="M5083 5003 c-10 -4 -13 -57 -13 -222 l0 -218 27 2 28 1 -1 76 0 77
24 -20 c51 -40 144 -13 178 52 35 69 22 178 -26 224 -40 38 -110 46 -151 16
-22 -16 -29 -18 -29 -7 0 16 -19 25 -37 19z m173 -56 c46 -40 48 -157 2 -203
-36 -36 -109 -15 -127 37 -31 91 9 185 81 188 9 1 29 -9 44 -22z"/>
<path d="M5485 5001 c-33 -14 -71 -58 -82 -94 -14 -47 -8 -122 14 -159 51 -87
201 -91 253 -6 l20 33 -27 7 c-20 6 -30 3 -36 -8 -22 -39 -48 -55 -80 -51 -60
9 -75 23 -92 85 -6 22 -6 22 114 22 l121 0 0 33 c-1 42 -28 95 -62 120 -29 22
-111 32 -143 18z m90 -45 c34 -15 60 -49 52 -69 -3 -8 -33 -12 -88 -12 -90 1
-92 3 -67 52 9 18 32 33 66 42 1 1 18 -5 37 -13z"/>
<path d="M5770 5000 c-13 -7 -16 -35 -15 -161 l0 -152 28 -1 27 -2 0 103 c0
59 5 113 12 129 28 60 120 62 136 2 4 -16 7 -74 6 -128 -1 -86 1 -99 16 -103
34 -9 38 6 38 123 -1 140 -9 166 -55 185 -48 20 -82 19 -121 -5 -35 -22 -46
-25 -38 -11 9 14 -18 30 -34 21z"/>
<path d="M6509 5001 c-26 -11 -56 -36 -67 -58 -16 -29 -16 -30 14 -36 20 -3
28 0 31 13 5 19 35 38 68 44 30 6 81 -19 87 -42 9 -33 -5 -43 -77 -53 -75 -10
-118 -31 -134 -65 -12 -28 -5 -73 16 -97 15 -15 85 -35 106 -29 4 1 16 3 26 5
10 2 30 10 44 20 24 16 26 16 32 -2 3 -11 15 -19 28 -19 22 0 22 2 18 126 -2
70 -7 137 -12 150 -16 41 -121 66 -180 43z m134 -193 c-7 -46 -20 -68 -49 -78
-62 -24 -122 5 -111 53 7 25 15 29 92 43 16 3 32 7 34 10 2 2 12 4 22 4 14 0
16 -6 12 -32z"/>
<path d="M7323 4990 c-33 -19 -65 -60 -70 -89 -13 -64 -2 -134 26 -167 63 -77
206 -68 248 16 14 29 15 27 -19 34 -21 3 -29 0 -33 -15 -4 -10 -15 -24 -26
-30 -65 -34 -121 -8 -144 69 -6 22 -6 22 116 22 l122 0 -6 46 c-6 55 -31 93
-78 116 -45 23 -96 23 -136 -2z m124 -41 c19 -16 46 -69 36 -70 -5 -1 -45 -2
-90 -3 -79 -1 -83 0 -83 20 0 34 53 73 91 69 17 -3 38 -10 46 -16z"/>
<path d="M8035 5003 c-38 -8 -67 -27 -81 -55 -18 -34 -18 -35 6 -41 20 -5 50
15 50 33 0 22 76 31 113 13 20 -10 27 -21 27 -43 0 -17 -5 -30 -12 -31 -74 -5
-165 -29 -183 -49 -9 -9 -18 -33 -21 -51 -6 -41 26 -85 71 -98 34 -9 127 10
133 28 6 17 20 13 27 -9 9 -28 58 -24 51 5 -3 11 -6 63 -6 115 -2 124 -13 158
-56 176 -32 14 -78 16 -119 7z m118 -190 c-3 -16 -6 -34 -7 -42 -8 -43 -102
-67 -138 -34 -42 38 -9 77 77 88 28 4 52 9 54 11 12 12 19 1 14 -23z"/>
<path d="M8349 5002 c-8 -3 -26 -13 -41 -24 -22 -15 -26 -25 -24 -58 4 -54 18
-67 100 -91 80 -25 96 -34 96 -59 0 -59 -138 -57 -153 2 -4 15 -11 18 -29 13
-32 -10 -31 -9 -14 -44 27 -52 65 -67 158 -62 15 0 42 14 60 30 25 22 32 37
32 64 0 50 -26 74 -108 98 -78 23 -100 37 -91 61 8 19 44 36 70 32 30 -5 65
-26 65 -41 0 -8 8 -11 23 -9 12 3 25 5 30 5 4 1 0 15 -8 32 -25 47 -102 71
-166 51z"/>
<path d="M9002 4994 c-29 -12 -55 -39 -65 -66 -11 -30 35 -27 63 4 30 33 65
41 107 23 31 -13 52 -50 36 -65 -4 -5 -43 -15 -86 -23 -109 -21 -143 -55 -125
-123 8 -33 42 -62 80 -67 31 -5 100 11 118 28 14 12 17 12 27 -3 6 -10 19 -18
31 -19 19 -2 20 3 16 129 -3 95 -8 137 -19 154 -26 40 -121 55 -183 28z m141
-193 c-2 -41 -27 -69 -70 -77 -42 -8 -78 7 -86 36 -6 25 23 60 51 61 27 1 65
9 71 15 3 2 12 3 21 1 10 -2 15 -13 13 -36z"/>
<path d="M9685 4996 c-74 -32 -104 -111 -81 -211 28 -121 207 -145 270 -36 27
46 27 144 1 188 -37 62 -122 89 -190 59z m136 -80 c35 -58 21 -144 -30 -183
-24 -17 -81 -8 -107 19 -43 42 -43 137 -1 182 41 44 105 36 138 -18z"/>
<path d="M9964 4997 c-9 -25 -9 -307 1 -310 5 -2 19 -2 30 1 20 3 21 10 20 95
-2 138 12 171 68 169 28 -1 37 3 42 20 8 24 -8 38 -45 38 -30 0 -43 -8 -58
-35 -11 -20 -11 -20 -12 1 0 24 -38 41 -46 21z"/>
<path d="M10557 4991 c-28 -15 -66 -65 -57 -74 3 -3 15 -8 27 -11 16 -5 23 -2
28 14 14 44 99 58 137 23 21 -18 24 -63 6 -64 -7 0 -22 -2 -33 -4 -11 -3 -36
-6 -55 -9 -80 -10 -120 -44 -120 -102 0 -77 101 -112 190 -65 36 19 38 19 43
2 3 -12 14 -18 31 -18 22 0 26 3 20 21 -4 11 -8 68 -9 126 -1 58 -5 115 -9
127 -16 49 -132 68 -199 34z m153 -185 c0 -42 -41 -86 -81 -86 -52 0 -79 17
-79 49 0 36 7 41 79 57 82 18 81 18 81 -20z"/>
<path d="M11397 4995 c-53 -28 -77 -68 -83 -141 -8 -103 53 -174 151 -174 58
0 109 27 127 66 10 21 9 27 -3 35 -22 14 -37 11 -43 -9 -8 -24 -56 -51 -86
-48 -34 4 -67 26 -79 53 -23 51 -20 53 109 53 l120 0 0 28 c0 46 -41 115 -80
134 -43 22 -95 23 -133 3z m103 -40 c32 -16 54 -49 47 -68 -3 -8 -33 -12 -88
-12 -68 1 -83 4 -81 16 6 34 28 60 56 68 17 5 32 10 34 10 2 1 16 -6 32 -14z"/>
<path d="M7623 4734 c-11 -29 2 -49 32 -49 27 0 30 3 30 29 0 26 -4 30 -28 31
-16 1 -31 -4 -34 -11z"/>
<path d="M8790 4716 c0 -28 3 -31 30 -32 28 -2 30 1 30 31 0 31 -3 34 -30 33
-27 -1 -30 -4 -30 -32z"/>
</g>
</svg>
