<svg width="229" height="97" viewBox="0 0 229 97" fill="none" xmlns="http://www.w3.org/2000/svg">
<g clip-path="url(#clip0_197_553)">
<path fill-rule="evenodd" clip-rule="evenodd" d="M31.8262 52.6388C31.9552 52.5172 32.1199 52.3171 32.2488 52.1884L36.9755 47.3992L37.398 46.956L39.9404 44.2969C40.0693 44.1682 40.234 43.9609 40.3629 43.8323L40.7926 43.382C41.8382 42.3955 41.1722 42.9531 42.3968 42.2168L44.2517 68.5362C44.3662 68.4147 44.5596 68.2288 44.6814 68.1073L54.7076 58.15C56.4837 56.8705 54.2636 58.15 56.0755 57.3351L55.9967 28.6926C53.261 32.3953 45.9704 40.1296 42.1247 41.6664C41.9958 34.8185 41.0647 20.5866 42.4469 14.5035L28.4746 28.4567V55.1763L31.8262 52.6388Z" fill="#FE824D"/>
<path fill-rule="evenodd" clip-rule="evenodd" d="M10.7639 73.1825C15.8343 68.0858 12.762 72.9609 13.2347 70.8379C13.2776 70.652 13.471 70.6592 13.5713 70.5662V43.2175C-2.18431 60.3158 -0.0859532 47.0132 0.315098 83.247L10.7639 73.2396V73.1825Z" fill="#FE824D"/>
<path fill-rule="evenodd" clip-rule="evenodd" d="M17.7107 94.8556C17.8396 94.7341 18.0115 94.5411 18.1332 94.4124L27.6152 85.2485L27.5436 57.8212L14.4665 70.9165V97L17.7035 94.8556H17.7107Z" fill="#FE824D"/>
<path fill-rule="evenodd" clip-rule="evenodd" d="M69.2529 0C67.7704 2.43036 68.4866 8.07023 68.4866 11.1296V83.054C68.4866 94.3481 67.971 91.5317 70.1338 92.1893C71.4802 89.5016 70.6709 22.924 70.6924 9.39263C70.6924 -1.81562 71.4085 1.01503 69.2601 0H69.2529Z" fill="#FE824D"/>
<path d="M86.2832 30.6225V28.4781C86.2832 25.2543 86.2832 19.5001 94.7411 19.5001C96.7828 19.5179 98.8122 19.8186 100.771 20.3936L99.8258 25.4759C98.73 25.2257 97.6122 25.0845 96.4885 25.0542C93.5308 25.0542 93.5308 27.0556 93.5308 28.6282V30.6225H98.9736V36.341H93.5522V57.9355H86.2832V36.3768H82.2584V30.6583L86.2832 30.6225Z" fill="white"/>
<path d="M101.989 37.7492C103.206 33.3674 105.691 29.9864 113.841 29.9864C125.371 29.9864 125.429 35.376 125.429 40.2868C125.429 41.9738 125.321 49.3649 125.371 50.9018C125.529 54.4758 125.901 55.7053 126.961 57.9713H119.8C119.574 57.4794 119.397 56.9672 119.27 56.4416L118.847 54.9619C117.755 56.1228 116.434 57.0458 114.967 57.6732C113.501 58.3005 111.92 58.6186 110.325 58.6074C104.825 58.6074 101.23 55.2836 101.23 50.5301C101.23 43.8251 107.417 42.6099 111.256 41.8737C115.331 41.1589 116.863 40.7085 118.288 40.1295V39.4147C118.288 37.6206 118.289 35.5619 113.318 35.5619C109.738 35.5619 109.021 37.6206 108.556 38.993L101.989 37.7492ZM118.281 44.8259C117.283 45.1858 116.258 45.4678 115.216 45.6693C114.844 45.7265 113.068 46.0911 112.731 46.1983C111.406 46.4628 108.499 47.2062 108.499 49.7724C108.51 50.2836 108.624 50.7874 108.834 51.2542C109.043 51.721 109.344 52.1415 109.718 52.4909C110.092 52.8404 110.532 53.1118 111.013 53.2894C111.493 53.467 112.004 53.5471 112.516 53.5251C114.086 53.4902 115.59 52.8883 116.749 51.831C118.281 50.5086 118.281 48.7716 118.281 46.2912V44.8259Z" fill="white"/>
<path d="M137.804 49.0647C138.649 52.7103 141.385 53.4465 143.676 53.4465C144.307 53.4465 148.912 53.3965 148.912 50.4371C148.912 48.8574 147.644 48.4857 145.947 48.114C137.646 46.3198 131.559 44.8974 131.559 38.3997C131.559 32.1165 137.324 30.0007 143.096 30.0007C149.599 30.0007 153.674 31.802 155.271 37.2417L148.396 38.5069C147.501 35.2831 144.536 35.1759 143.268 35.1759C142.001 35.1759 138.255 35.2331 138.255 37.449C138.283 37.8371 138.43 38.2072 138.676 38.5091C138.922 38.8109 139.255 39.0298 139.63 39.136C141.646 39.8045 143.694 40.3699 145.768 40.8301C150.638 41.9881 156.138 43.4177 156.138 49.4078C156.138 53.6967 152.7 58.5932 143.655 58.5932C141.005 58.5932 136.615 58.1214 133.442 55.2693C131.966 53.9021 130.95 52.1115 130.535 50.1441L137.804 49.0647Z" fill="white"/>
<path d="M174.407 36.3768H169.465V47.4135C169.465 51.3235 169.465 52.5887 171.478 52.5887C172.412 52.5604 173.33 52.344 174.178 51.9525L174.385 51.9025L175.023 57.4995C173.197 58.215 171.255 58.5905 169.294 58.6074C167.073 58.6074 164.216 57.8926 163.156 55.8125C162.261 54.1184 162.153 52.4815 162.153 48.3141V36.3768H158.823V30.6583H162.153V25.1828L169.451 20.894V30.6225H174.371L174.407 36.3768Z" fill="white"/>
<path d="M177.343 40.6585H191.573V47.8924H177.343V40.6585Z" fill="white"/>
<path d="M211.225 20.172C215.522 20.172 221.752 20.172 225.827 26.5553C227.095 28.5639 229 32.0522 229 39.4219C229 41.6878 229 48.5 224.187 53.7181C220.327 57.9427 214.032 57.9427 211.597 57.9427H197.274V20.172H211.225ZM204.88 26.5553V51.5737H210.609C216.481 51.5737 221.137 51.252 221.137 39.1074C221.137 26.541 215.744 26.541 208.339 26.541L204.88 26.5553Z" fill="white"/>
<path d="M86.4479 74.9195V74.1618C86.2747 74.4488 86.0266 74.6835 85.7302 74.8408C85.4338 74.9982 85.1002 75.0723 84.7649 75.0553C84.294 75.0585 83.8327 74.9216 83.44 74.6621C83.0321 74.3869 82.7096 74.003 82.509 73.5542C82.2774 73.0424 82.1625 72.4858 82.1724 71.9244C82.1647 71.3644 82.2668 70.8083 82.4732 70.2875C82.6496 69.8287 82.965 69.4364 83.3756 69.1652C83.7749 68.9028 84.2439 68.7659 84.722 68.7721C85.0583 68.7665 85.3907 68.8451 85.6888 69.0008C85.9696 69.1448 86.2144 69.35 86.405 69.6013V66.6205H87.4219V74.9195H86.4479ZM83.2252 71.9244C83.1802 72.5378 83.3525 73.1476 83.7122 73.6471C83.8486 73.8232 84.0232 73.9661 84.2229 74.0652C84.4226 74.1642 84.6422 74.2168 84.8652 74.2189C85.084 74.2212 85.3004 74.1734 85.4977 74.0792C85.6951 73.9851 85.8683 73.847 86.0039 73.6757C86.3502 73.1896 86.5149 72.5977 86.4694 72.003C86.5224 71.3631 86.3529 70.7245 85.9896 70.1945C85.8541 70.0118 85.6768 69.8639 85.4725 69.7632C85.2683 69.6625 85.0429 69.6119 84.8151 69.6155C84.5963 69.6161 84.3806 69.6666 84.1845 69.7632C83.9883 69.8599 83.817 70.0001 83.6835 70.1731C83.3314 70.6913 83.1695 71.315 83.2252 71.9387V71.9244Z" fill="white"/>
<path d="M93.1297 72.9823L94.1825 73.1181C94.0469 73.6859 93.7209 74.1903 93.2586 74.5478C92.6769 74.9248 91.9869 75.0997 91.2954 75.0454C90.604 74.9911 89.9498 74.7107 89.4343 74.2475C88.8872 73.6179 88.6094 72.7991 88.6609 71.9673C88.6086 71.109 88.8908 70.2637 89.4486 69.6084C89.7065 69.3319 90.021 69.1141 90.3707 68.9698C90.7204 68.8255 91.0972 68.7581 91.4754 68.7721C91.8447 68.7593 92.2124 68.8261 92.5535 68.9679C92.8946 69.1098 93.201 69.3234 93.452 69.5941C93.995 70.2369 94.2694 71.0637 94.2183 71.9029C94.2183 71.9673 94.2183 72.0531 94.2183 72.1746H89.7279C89.7227 72.7308 89.9214 73.2698 90.2865 73.69C90.4479 73.8613 90.6434 73.9969 90.8605 74.088C91.0776 74.1791 91.3115 74.2237 91.547 74.2189C91.8902 74.2272 92.2268 74.1244 92.5066 73.9259C92.8021 73.6787 93.0186 73.3507 93.1297 72.9823ZM89.7781 71.3383H93.1369C93.1289 70.9286 92.9938 70.5315 92.7501 70.2017C92.6004 70.0121 92.4087 69.8599 92.1899 69.7569C91.9712 69.6539 91.7315 69.6031 91.4897 69.6084C91.2709 69.6024 91.0532 69.6412 90.85 69.7223C90.6468 69.8035 90.4623 69.9252 90.308 70.0802C89.9761 70.4161 89.7863 70.8665 89.7781 71.3383Z" fill="white"/>
<path d="M95.4644 77.2212V68.9079H96.4169V69.687C96.6 69.399 96.8445 69.155 97.1331 68.9722C97.4425 68.8124 97.7875 68.7337 98.1357 68.7435C98.6194 68.7365 99.0938 68.8761 99.4964 69.1438C99.8974 69.4186 100.207 69.807 100.384 70.2589C100.804 71.3001 100.804 72.463 100.384 73.5041C100.184 73.9696 99.847 74.3635 99.4176 74.6335C99.0206 74.8894 98.5582 75.0259 98.0856 75.0267C97.7692 75.032 97.4566 74.9583 97.176 74.8122C96.9164 74.6797 96.6871 74.4947 96.5028 74.269V77.1926L95.4644 77.2212ZM96.4169 71.9387C96.3675 72.546 96.5349 73.1512 96.8896 73.6471C97.0238 73.8211 97.1963 73.9619 97.3937 74.0585C97.5912 74.1552 97.8083 74.2052 98.0283 74.2047C98.2535 74.2036 98.4756 74.1516 98.6778 74.0526C98.88 73.9535 99.057 73.81 99.1956 73.6328C99.5563 73.1124 99.7258 72.4837 99.6755 71.8529C99.7222 71.2414 99.5552 70.6326 99.2028 70.1302C99.0708 69.9546 98.9001 69.8116 98.7039 69.7125C98.5077 69.6133 98.2912 69.5606 98.0712 69.5584C97.8453 69.5647 97.6238 69.6228 97.4238 69.7281C97.2239 69.8335 97.0509 69.9833 96.9182 70.166C96.5494 70.6806 96.3721 71.3075 96.4169 71.9387Z" fill="white"/>
<path d="M106.049 72.9823L107.102 73.1181C106.966 73.6859 106.64 74.1903 106.178 74.5478C105.597 74.9248 104.906 75.0997 104.215 75.0454C103.524 74.9911 102.869 74.7107 102.354 74.2475C101.807 73.6179 101.529 72.7991 101.58 71.9673C101.528 71.109 101.81 70.2637 102.368 69.6084C102.627 69.3327 102.941 69.1154 103.291 68.9711C103.64 68.8269 104.017 68.759 104.395 68.7721C104.764 68.7588 105.132 68.8254 105.473 68.9673C105.815 69.1092 106.121 69.323 106.372 69.5941C106.931 70.2428 107.214 71.0844 107.159 71.9387C107.159 72.003 107.159 72.0888 107.159 72.2103H102.669C102.664 72.7666 102.862 73.3055 103.228 73.7257C103.389 73.897 103.584 74.0326 103.802 74.1237C104.019 74.2148 104.253 74.2595 104.488 74.2547C104.831 74.263 105.168 74.1602 105.448 73.9616C105.741 73.702 105.951 73.3611 106.049 72.9823ZM102.698 71.3383H106.056C106.048 70.9286 105.913 70.5315 105.67 70.2017C105.52 70.0121 105.328 69.8599 105.109 69.7569C104.891 69.6539 104.651 69.6031 104.409 69.6084C104.19 69.6024 103.973 69.6412 103.77 69.7223C103.566 69.8035 103.382 69.9252 103.228 70.0802C102.896 70.4161 102.706 70.8665 102.698 71.3383Z" fill="white"/>
<path d="M108.384 74.9194V68.9079H109.308V69.7942C109.511 69.4741 109.796 69.2134 110.133 69.0389C110.47 68.8644 110.848 68.7822 111.227 68.8006C111.572 68.7958 111.914 68.864 112.23 69.0008C112.511 69.0995 112.76 69.2754 112.946 69.5083C113.098 69.7231 113.205 69.9662 113.261 70.2231C113.311 70.5518 113.33 70.8845 113.318 71.2167V74.9123H112.301V71.2596C112.314 70.9428 112.273 70.6262 112.18 70.3232C112.095 70.1179 111.947 69.945 111.757 69.83C111.54 69.7046 111.292 69.6427 111.041 69.6513C110.627 69.6422 110.225 69.7904 109.917 70.0659C109.73 70.2781 109.591 70.5273 109.508 70.7972C109.426 71.067 109.401 71.3513 109.437 71.6313V74.9123L108.384 74.9194Z" fill="white"/>
<path d="M118.754 74.9195V74.1618C118.578 74.4483 118.329 74.6824 118.032 74.8396C117.734 74.9968 117.4 75.0713 117.064 75.0553C116.593 75.0585 116.132 74.9216 115.739 74.6621C115.331 74.3869 115.008 74.003 114.808 73.5542C114.579 73.0419 114.466 72.4853 114.479 71.9244C114.468 71.3649 114.568 70.8088 114.772 70.2875C114.948 69.8287 115.264 69.4364 115.675 69.1652C116.074 68.9028 116.543 68.7659 117.021 68.7721C117.357 68.7665 117.69 68.8451 117.988 69.0008C118.269 69.1448 118.513 69.35 118.704 69.6013V66.6205H119.721V74.9195H118.754ZM115.524 71.9387C115.479 72.5521 115.651 73.1619 116.011 73.6614C116.148 73.8375 116.322 73.9804 116.522 74.0795C116.722 74.1785 116.941 74.2311 117.164 74.2332C117.383 74.2355 117.599 74.1877 117.797 74.0935C117.994 73.9994 118.167 73.8613 118.303 73.69C118.649 73.2039 118.814 72.612 118.768 72.0173C118.821 71.3774 118.652 70.7388 118.289 70.2088C118.154 70.027 117.978 69.8798 117.775 69.7791C117.572 69.6785 117.348 69.6273 117.121 69.6298C116.901 69.6293 116.684 69.6793 116.487 69.776C116.289 69.8726 116.117 70.0134 115.982 70.1874C115.634 70.7017 115.472 71.3198 115.524 71.9387Z" fill="white"/>
<path d="M125.235 74.176C124.913 74.4739 124.542 74.7155 124.14 74.8909C123.779 75.0214 123.398 75.0868 123.015 75.0839C122.464 75.121 121.92 74.95 121.49 74.6049C121.306 74.4315 121.163 74.2194 121.071 73.9839C120.98 73.7485 120.942 73.4957 120.96 73.2438C120.979 72.992 121.053 72.7474 121.178 72.5278C121.303 72.3082 121.476 72.1192 121.683 71.9744C121.901 71.8234 122.143 71.7099 122.399 71.6385C122.699 71.5678 123.003 71.5176 123.309 71.4883C123.925 71.4306 124.534 71.3133 125.128 71.1381C125.128 70.9951 125.128 70.9094 125.128 70.8665C125.144 70.7075 125.126 70.547 125.076 70.3954C125.025 70.2439 124.943 70.1047 124.834 69.9872C124.503 69.7351 124.09 69.613 123.674 69.6441C123.301 69.6179 122.929 69.7051 122.607 69.8943C122.343 70.1269 122.167 70.4419 122.106 70.7878L121.103 70.652C121.173 70.2791 121.327 69.927 121.554 69.6227C121.791 69.339 122.104 69.1283 122.457 69.0151C122.896 68.8643 123.359 68.7917 123.824 68.8007C124.25 68.7878 124.674 68.8507 125.078 68.9865C125.351 69.0741 125.597 69.229 125.794 69.4368C125.954 69.6471 126.062 69.892 126.109 70.1517C126.152 70.4642 126.169 70.7798 126.159 71.0952V72.4533C126.144 73.0522 126.165 73.6514 126.224 74.2475C126.268 74.4987 126.355 74.7404 126.481 74.9623H125.414C125.303 74.7145 125.243 74.4473 125.235 74.176ZM125.149 71.9029C124.609 72.0939 124.05 72.2234 123.481 72.2889C123.177 72.3183 122.878 72.388 122.593 72.4962C122.427 72.5607 122.287 72.6758 122.192 72.8251C122.094 72.9682 122.044 73.1382 122.048 73.3111C122.04 73.446 122.064 73.5809 122.117 73.705C122.171 73.8292 122.253 73.9391 122.356 74.0259C122.614 74.222 122.935 74.3185 123.259 74.2976C123.626 74.303 123.988 74.2144 124.311 74.0402C124.603 73.8759 124.838 73.6265 124.985 73.3254C125.11 72.9998 125.166 72.6517 125.149 72.3032V71.9029Z" fill="white"/>
<path d="M128.702 74.9195H127.756V66.6205H128.78V69.5798C128.972 69.3253 129.221 69.1195 129.507 68.9792C129.793 68.8388 130.109 68.7679 130.427 68.7721C130.79 68.7723 131.148 68.8477 131.48 68.9937C131.798 69.1369 132.077 69.3523 132.297 69.6227C132.521 69.9166 132.691 70.2483 132.798 70.602C132.923 70.9973 132.986 71.4097 132.984 71.8243C133.04 72.6881 132.766 73.5409 132.218 74.2118C131.991 74.4778 131.709 74.6912 131.391 74.8369C131.073 74.9826 130.727 75.0571 130.377 75.0553C130.045 75.0643 129.716 74.9875 129.423 74.8322C129.129 74.6769 128.881 74.4484 128.702 74.1689V74.9195ZM128.702 71.8672C128.664 72.4054 128.766 72.9442 128.995 73.4326C129.103 73.6578 129.268 73.8509 129.473 73.9928C129.679 74.1347 129.918 74.2203 130.167 74.2413C130.416 74.2622 130.667 74.2178 130.893 74.1123C131.12 74.0068 131.315 73.8439 131.459 73.6399C131.773 73.1161 131.939 72.5171 131.939 71.9065C131.939 71.296 131.773 70.6969 131.459 70.1731C131.327 69.9997 131.157 69.8587 130.962 69.7609C130.767 69.663 130.552 69.6109 130.334 69.6084C130.108 69.6078 129.885 69.6606 129.684 69.7625C129.482 69.8644 129.308 70.0124 129.174 70.1945C128.819 70.6771 128.649 71.2704 128.694 71.8672H128.702Z" fill="white"/>
<path d="M134.202 74.9195V66.6205H135.219V74.9195H134.202Z" fill="white"/>
<path d="M140.926 72.9823L141.979 73.1181C141.844 73.6859 141.518 74.1903 141.055 74.5477C140.475 74.9254 139.786 75.1007 139.096 75.0464C138.405 74.9921 137.752 74.7112 137.238 74.2475C136.691 73.6179 136.413 72.7991 136.465 71.9673C136.41 71.1099 136.69 70.2648 137.245 69.6084C137.505 69.3317 137.82 69.1139 138.171 68.9696C138.522 68.8253 138.9 68.758 139.279 68.7721C139.647 68.7594 140.014 68.8262 140.354 68.9681C140.694 69.11 140.999 69.3235 141.249 69.5941C141.795 70.2351 142.07 71.0632 142.015 71.9029C142.015 71.9673 142.015 72.0531 142.015 72.1746H137.525C137.522 72.7316 137.723 73.2705 138.09 73.69C138.25 73.8611 138.445 73.9966 138.661 74.0878C138.877 74.1789 139.109 74.2236 139.344 74.2189C139.687 74.2283 140.024 74.1253 140.303 73.9259C140.599 73.6787 140.815 73.3507 140.926 72.9823ZM137.575 71.3382H140.941C140.926 70.9298 140.792 70.5346 140.554 70.2017C140.403 70.0116 140.21 69.859 139.99 69.756C139.77 69.6531 139.529 69.6025 139.286 69.6084C139.068 69.6037 138.85 69.643 138.647 69.7241C138.444 69.8051 138.26 69.9263 138.105 70.0802C137.775 70.4177 137.586 70.8671 137.575 71.3382Z" fill="white"/>
<path d="M143.555 74.9195V73.7615H144.715V74.9195H143.555Z" fill="white"/>
<path d="M146.734 74.9195V69.7013H145.832V68.9079H146.734V68.2717C146.721 67.9676 146.757 67.6634 146.842 67.371C146.942 67.1057 147.125 66.88 147.365 66.7277C147.679 66.5445 148.04 66.4575 148.403 66.4775C148.723 66.4813 149.043 66.5173 149.356 66.5847L149.198 67.4711C149.002 67.4356 148.803 67.4164 148.604 67.4139C148.486 67.401 148.367 67.4121 148.254 67.4465C148.14 67.4809 148.035 67.5379 147.945 67.6141C147.797 67.8216 147.728 68.0752 147.751 68.3289V68.8793H148.926V69.6727H147.751V74.8909L146.734 74.9195Z" fill="white"/>
<path d="M153.645 74.176C153.327 74.4752 152.958 74.717 152.557 74.8909C152.197 75.0214 151.816 75.0868 151.432 75.0839C150.881 75.1261 150.335 74.9545 149.907 74.6049C149.732 74.4491 149.594 74.257 149.501 74.0422C149.408 73.8274 149.363 73.595 149.37 73.3612C149.367 73.0892 149.43 72.8207 149.555 72.5789C149.68 72.3372 149.862 72.1296 150.086 71.9744C150.304 71.8222 150.546 71.7086 150.802 71.6385C151.099 71.5683 151.401 71.5181 151.705 71.4883C152.323 71.4305 152.935 71.3132 153.531 71.1381V70.8665C153.548 70.708 153.531 70.5478 153.482 70.3963C153.432 70.2447 153.352 70.1053 153.244 69.9872C152.912 69.7369 152.5 69.615 152.084 69.6441C151.711 69.6179 151.339 69.7051 151.017 69.8943C150.751 70.1262 150.572 70.4412 150.509 70.7878L149.513 70.652C149.581 70.2796 149.732 69.9275 149.957 69.6227C150.194 69.339 150.507 69.1283 150.86 69.0151C151.3 68.8649 151.762 68.7923 152.227 68.8007C152.653 68.7878 153.077 68.8507 153.481 68.9865C153.755 69.0706 154.002 69.226 154.197 69.4368C154.359 69.6466 154.469 69.8914 154.519 70.1517C154.559 70.4646 154.575 70.7799 154.569 71.0952V72.4533C154.554 73.0522 154.575 73.6514 154.634 74.2475C154.678 74.4987 154.766 74.7404 154.892 74.9623H153.853C153.736 74.7153 153.665 74.4487 153.645 74.176ZM153.567 71.9387C153.027 72.1288 152.467 72.2582 151.898 72.3247C151.592 72.3551 151.291 72.4248 151.003 72.532C150.839 72.5985 150.699 72.7132 150.602 72.8608C150.484 73.0428 150.437 73.2613 150.468 73.4756C150.5 73.69 150.608 73.8855 150.774 74.0259C151.031 74.2244 151.352 74.3212 151.676 74.2976C152.041 74.305 152.402 74.2163 152.722 74.0402C153.017 73.8785 153.255 73.6286 153.402 73.3254C153.527 72.9998 153.584 72.6517 153.567 72.3032V71.9387Z" fill="white"/>
<path d="M155.772 73.1253L156.782 72.968C156.795 73.1464 156.844 73.3204 156.925 73.48C157.006 73.6395 157.118 73.7813 157.255 73.8973C157.566 74.1288 157.949 74.2428 158.336 74.2189C158.708 74.2495 159.078 74.1482 159.382 73.933C159.487 73.8546 159.572 73.7532 159.632 73.6368C159.691 73.5203 159.723 73.3918 159.726 73.2611C159.728 73.1522 159.701 73.0447 159.648 72.9493C159.595 72.854 159.518 72.7741 159.425 72.7178C159.091 72.5629 158.74 72.4477 158.379 72.3747C157.847 72.2571 157.327 72.092 156.825 71.8815C156.551 71.764 156.321 71.5641 156.166 71.3096C156.015 71.0676 155.935 70.7874 155.937 70.5019C155.941 70.2523 156.005 70.0072 156.123 69.7871C156.245 69.5628 156.416 69.3695 156.625 69.2224C156.823 69.0865 157.044 68.9851 157.276 68.9222C157.563 68.8403 157.859 68.7994 158.157 68.8007C158.582 68.7936 159.004 68.8639 159.403 69.0079C159.716 69.1079 159.99 69.2998 160.191 69.5583C160.379 69.8364 160.5 70.1547 160.542 70.4876L159.547 70.6234C159.513 70.3431 159.372 70.0868 159.153 69.9086C158.884 69.7169 158.558 69.6235 158.229 69.6441C157.878 69.6143 157.527 69.6969 157.226 69.88C157.138 69.9422 157.066 70.0233 157.014 70.1174C156.962 70.2114 156.931 70.316 156.925 70.4233C156.926 70.5537 156.971 70.68 157.054 70.7807C157.156 70.9053 157.289 70.9993 157.441 71.0523L158.343 71.3096C158.856 71.4358 159.361 71.5934 159.855 71.7814C160.124 71.8943 160.358 72.0799 160.528 72.3175C160.697 72.5761 160.782 72.8808 160.771 73.1896C160.77 73.5307 160.668 73.8639 160.478 74.1474C160.266 74.4661 159.964 74.7149 159.611 74.8623C159.21 75.0311 158.778 75.1139 158.343 75.1053C157.709 75.1493 157.078 74.9781 156.553 74.6192C156.108 74.2418 155.828 73.7058 155.772 73.1253Z" fill="white"/>
<path d="M164.216 74.0116L164.359 74.9123C164.107 74.9656 163.851 74.9943 163.593 74.9981C163.294 75.0134 162.997 74.9545 162.726 74.8265C162.538 74.7205 162.388 74.5579 162.297 74.3619C162.188 73.9714 162.147 73.5653 162.175 73.161V69.7013H161.459V68.9079H162.175V67.4211L163.185 66.8063V68.9079H164.216V69.7013H163.185V73.2182C163.173 73.4059 163.192 73.5944 163.242 73.7758C163.277 73.8607 163.34 73.9313 163.421 73.9759C163.527 74.031 163.646 74.0558 163.765 74.0474C163.916 74.0434 164.066 74.0315 164.216 74.0116Z" fill="white"/>
<path d="M165.505 74.9195V73.7615H166.665V74.9195H165.505Z" fill="white"/>
<path d="M172.373 74.176C172.05 74.4739 171.68 74.7155 171.277 74.8909C170.917 75.0214 170.536 75.0868 170.153 75.0839C169.602 75.121 169.058 74.95 168.628 74.6049C168.444 74.4315 168.301 74.2194 168.209 73.9839C168.118 73.7485 168.08 73.4957 168.098 73.2438C168.117 72.992 168.191 72.7474 168.316 72.5278C168.441 72.3082 168.614 72.1192 168.821 71.9744C169.039 71.8234 169.281 71.7099 169.537 71.6385C169.836 71.5678 170.14 71.5176 170.447 71.4883C171.063 71.4306 171.672 71.3133 172.266 71.1381C172.266 70.9951 172.266 70.9094 172.266 70.8665C172.282 70.7075 172.264 70.547 172.213 70.3954C172.163 70.2439 172.08 70.1047 171.972 69.9872C171.64 69.7351 171.228 69.613 170.812 69.6441C170.439 69.6179 170.067 69.7051 169.745 69.8943C169.482 70.1283 169.303 70.4423 169.236 70.7878L168.241 70.652C168.311 70.2791 168.465 69.927 168.692 69.6227C168.928 69.3407 169.238 69.1302 169.587 69.0151C170.027 68.8649 170.49 68.7923 170.955 68.8007C171.381 68.7878 171.805 68.8507 172.208 68.9865C172.483 69.0706 172.73 69.226 172.925 69.4368C173.087 69.6466 173.197 69.8914 173.247 70.1517C173.286 70.4646 173.303 70.7799 173.297 71.0952V72.4533C173.281 73.0522 173.303 73.6514 173.361 74.2475C173.406 74.4987 173.493 74.7404 173.619 74.9623H172.552C172.441 74.7145 172.38 74.4473 172.373 74.176ZM172.287 71.9029C171.747 72.093 171.187 72.2225 170.618 72.2889C170.315 72.3183 170.016 72.388 169.73 72.4962C169.564 72.5623 169.422 72.6769 169.322 72.8251C169.209 73.0084 169.164 73.2257 169.195 73.4389C169.227 73.652 169.333 73.8473 169.494 73.9902C169.752 74.1875 170.073 74.2841 170.396 74.2618C170.764 74.2673 171.126 74.1787 171.449 74.0045C171.741 73.8402 171.976 73.5908 172.122 73.2897C172.248 72.9641 172.304 72.616 172.287 72.2675V71.9029Z" fill="white"/>
<path d="M178.095 74.9194V69.6942H176.169V74.9194H175.152V69.6942H174.242V68.9079H175.152V68.3646C175.118 67.8773 175.252 67.3932 175.531 66.9922C175.685 66.8245 175.876 66.6943 176.088 66.6113C176.3 66.5283 176.529 66.4947 176.756 66.5133C177.107 66.5138 177.456 66.5595 177.794 66.6491L177.637 67.5068C177.455 67.474 177.27 67.4573 177.085 67.4568C176.829 67.4299 176.572 67.5043 176.369 67.6641C176.209 67.9328 176.141 68.2467 176.176 68.5576V68.9436H178.102V68.3646C178.071 67.8765 178.207 67.3922 178.489 66.9922C178.643 66.8245 178.834 66.6943 179.046 66.6113C179.258 66.5283 179.487 66.4947 179.714 66.5133C180.062 66.5134 180.409 66.5591 180.745 66.6491L180.587 67.5068C180.405 67.4737 180.221 67.457 180.036 67.4568C179.909 67.4427 179.78 67.4538 179.657 67.4893C179.534 67.5249 179.42 67.5843 179.32 67.6641C179.159 67.9328 179.091 68.2467 179.126 68.5576V68.9436H180.294V69.7299H179.126V74.9552L178.095 74.9194Z" fill="white"/>
<path d="M180.724 71.9387C180.686 71.4834 180.75 71.0253 180.911 70.5976C181.072 70.17 181.326 69.7833 181.655 69.4654C182.18 69.0119 182.858 68.7721 183.552 68.7935C183.928 68.7804 184.303 68.8462 184.652 68.9865C185.001 69.1269 185.317 69.3387 185.579 69.6084C185.852 69.9124 186.062 70.2672 186.197 70.6523C186.332 71.0375 186.39 71.4454 186.367 71.8529C186.398 72.4798 186.278 73.1049 186.016 73.6757C185.792 74.1154 185.44 74.4769 185.006 74.7121C184.567 74.9518 184.074 75.0772 183.574 75.0767C183.195 75.0933 182.816 75.0299 182.463 74.8908C182.111 74.7516 181.791 74.5397 181.526 74.269C180.96 73.6288 180.671 72.7908 180.724 71.9387ZM181.776 71.9387C181.729 72.5567 181.907 73.171 182.278 73.6685C182.434 73.8521 182.63 73.9986 182.851 74.0975C183.071 74.1963 183.311 74.2452 183.552 74.2404C183.792 74.2442 184.03 74.1941 184.249 74.0939C184.467 73.9937 184.66 73.8459 184.813 73.6614C185.188 73.1552 185.369 72.531 185.321 71.9029C185.364 71.2975 185.183 70.6973 184.813 70.216C184.655 70.0354 184.46 69.8907 184.241 69.7916C184.023 69.6924 183.785 69.6411 183.545 69.6411C183.305 69.6411 183.068 69.6924 182.849 69.7916C182.63 69.8907 182.436 70.0354 182.278 70.216C181.907 70.7107 181.729 71.3228 181.776 71.9387Z" fill="white"/>
<path d="M187.556 74.9194V68.9079H188.472V69.7942C188.625 69.4689 188.848 69.181 189.124 68.9508C189.314 68.8154 189.542 68.7429 189.776 68.7435C190.15 68.7553 190.514 68.869 190.829 69.0723L190.47 70.0158C190.255 69.8814 190.008 69.805 189.754 69.7942C189.536 69.7942 189.324 69.8672 189.153 70.0015C188.966 70.1388 188.832 70.3355 188.773 70.5591C188.655 70.9434 188.597 71.3437 188.601 71.7457V74.8909L187.556 74.9194Z" fill="white"/>
<path d="M195.34 74.9195V74.1618C195.166 74.4477 194.918 74.6815 194.622 74.8387C194.325 74.9959 193.992 75.0707 193.657 75.0553C193.186 75.0594 192.725 74.9224 192.332 74.6621C191.922 74.3873 191.597 74.0035 191.394 73.5542C191.165 73.0419 191.053 72.4853 191.065 71.9244C191.057 71.3644 191.159 70.8083 191.366 70.2875C191.54 69.8367 191.848 69.4498 192.248 69.1789C192.649 68.908 193.123 68.7661 193.607 68.7721C193.946 68.7671 194.28 68.8456 194.581 69.0008C194.861 69.146 195.106 69.351 195.297 69.6013V66.6205H196.314V74.9195H195.34ZM192.11 71.9387C192.065 72.5521 192.238 73.1619 192.597 73.6614C192.734 73.8371 192.909 73.9798 193.109 74.0788C193.308 74.1778 193.528 74.2306 193.751 74.2332C193.969 74.2355 194.186 74.1877 194.383 74.0935C194.58 73.9994 194.754 73.8613 194.889 73.69C195.235 73.2039 195.4 72.612 195.355 72.0173C195.405 71.3787 195.238 70.7418 194.882 70.2088C194.745 70.0282 194.567 69.8818 194.363 69.7813C194.159 69.6809 193.935 69.629 193.708 69.6298C193.488 69.6293 193.27 69.6793 193.073 69.776C192.876 69.8726 192.703 70.0134 192.569 70.1874C192.22 70.7017 192.058 71.3198 192.11 71.9387Z" fill="white"/>
<path d="M201.822 74.176C201.5 74.4722 201.133 74.7136 200.733 74.8909C200.37 75.0214 199.987 75.0867 199.602 75.0839C199.051 75.121 198.506 74.95 198.076 74.6049C197.903 74.4478 197.767 74.2554 197.675 74.0407C197.584 73.8261 197.54 73.5943 197.546 73.3612C197.543 73.0892 197.607 72.8207 197.732 72.5789C197.856 72.3372 198.039 72.1296 198.262 71.9744C198.48 71.8216 198.722 71.7079 198.978 71.6385C199.278 71.5678 199.582 71.5176 199.888 71.4883C200.504 71.4314 201.114 71.3141 201.707 71.1381C201.707 70.9951 201.707 70.9094 201.707 70.8665C201.722 70.7081 201.705 70.5483 201.656 70.3971C201.606 70.2458 201.526 70.1063 201.421 69.9872C201.086 69.7358 200.671 69.6139 200.253 69.6441C199.883 69.6175 199.513 69.7048 199.193 69.8943C198.927 70.1262 198.748 70.4412 198.685 70.7878L197.682 70.652C197.752 70.2791 197.906 69.927 198.133 69.6227C198.371 69.339 198.683 69.1283 199.036 69.0151C199.476 68.8643 199.939 68.7917 200.404 68.8007C200.829 68.7878 201.254 68.8507 201.657 68.9865C201.931 69.0706 202.179 69.226 202.373 69.4368C202.536 69.6453 202.644 69.891 202.688 70.1517C202.731 70.4642 202.748 70.7798 202.738 71.0952V72.4533C202.723 73.0522 202.744 73.6514 202.803 74.2475C202.847 74.4987 202.935 74.7404 203.061 74.9623H201.994C201.889 74.7129 201.83 74.4464 201.822 74.176ZM201.736 71.9029C201.196 72.0939 200.636 72.2234 200.067 72.2889C199.763 72.3193 199.465 72.389 199.179 72.4962C199.015 72.5628 198.875 72.6774 198.778 72.8251C198.683 72.9695 198.634 73.1386 198.635 73.3111C198.627 73.446 198.65 73.5809 198.704 73.705C198.757 73.8292 198.839 73.9391 198.943 74.0259C199.201 74.222 199.521 74.3185 199.845 74.2976C200.212 74.303 200.575 74.2144 200.898 74.0402C201.192 73.8781 201.427 73.6281 201.571 73.3254C201.696 72.9998 201.753 72.6517 201.736 72.3032V71.9029Z" fill="white"/>
<path d="M205.274 74.9195H204.328V66.6205H205.345V69.5798C205.537 69.3243 205.788 69.118 206.075 68.9776C206.363 68.8372 206.679 68.7667 206.999 68.7721C207.36 68.7731 207.716 68.8485 208.045 68.9937C208.366 69.135 208.648 69.3507 208.869 69.6227C209.09 69.9182 209.26 70.2494 209.37 70.602C209.493 70.9977 209.553 71.4101 209.549 71.8243C209.604 72.6881 209.331 73.5409 208.783 74.2118C208.557 74.4786 208.275 74.6925 207.957 74.8382C207.639 74.984 207.292 75.0581 206.942 75.0553C206.611 75.0652 206.283 74.9887 205.99 74.8332C205.697 74.6778 205.45 74.4488 205.274 74.1689V74.9195ZM205.274 71.8672C205.237 72.4054 205.338 72.9442 205.567 73.4326C205.693 73.6702 205.882 73.8689 206.113 74.0075C206.344 74.146 206.608 74.2191 206.878 74.2189C207.102 74.2192 207.323 74.167 207.523 74.0664C207.724 73.9658 207.897 73.8198 208.031 73.6399C208.39 73.1375 208.562 72.5257 208.518 71.9101C208.566 71.295 208.402 70.6818 208.052 70.1731C207.92 69.9988 207.749 69.8572 207.552 69.7593C207.356 69.6614 207.14 69.6098 206.921 69.6084C206.695 69.6106 206.473 69.6646 206.272 69.7663C206.071 69.8679 205.896 70.0145 205.761 70.1945C205.407 70.6778 205.234 71.2699 205.274 71.8672Z" fill="white"/>
<path d="M210.788 74.9195V66.6205H211.812V74.9195H210.788Z" fill="white"/>
<path d="M217.513 72.9823L218.573 73.1181C218.431 73.6834 218.107 74.1861 217.649 74.5477C217.144 74.9004 216.538 75.0786 215.923 75.0553C215.536 75.074 215.15 75.0118 214.788 74.8727C214.427 74.7336 214.099 74.5207 213.825 74.2475C213.277 73.6179 213 72.7991 213.051 71.9673C213 71.1104 213.28 70.2666 213.832 69.6084C214.092 69.3325 214.407 69.1151 214.758 68.9709C215.109 68.8267 215.486 68.7589 215.866 68.7721C216.235 68.7602 216.602 68.8274 216.943 68.9692C217.284 69.111 217.591 69.3241 217.842 69.5941C218.383 70.2376 218.655 71.0645 218.601 71.9029V72.1746H214.104C214.104 72.731 214.305 73.2688 214.67 73.69C214.83 73.862 215.026 73.998 215.243 74.0892C215.46 74.1804 215.694 74.2246 215.93 74.2189C216.271 74.2272 216.605 74.1243 216.883 73.9259C217.183 73.6817 217.402 73.3529 217.513 72.9823ZM214.161 71.3382H217.527C217.519 70.9286 217.384 70.5315 217.14 70.2017C216.99 70.0111 216.797 69.8583 216.577 69.7553C216.357 69.6523 216.116 69.602 215.873 69.6084C215.654 69.6037 215.437 69.643 215.234 69.7241C215.031 69.8051 214.846 69.9262 214.691 70.0802C214.365 70.4196 214.176 70.8679 214.161 71.3382Z" fill="white"/>
</g>
<defs>
<clipPath id="clip0_197_553">
<rect width="229" height="97" fill="white"/>
</clipPath>
</defs>
</svg>
