<svg xmlns="http://www.w3.org/2000/svg" xmlns:xlink="http://www.w3.org/1999/xlink" viewBox="0 0 908.78 236.64"><defs><style>.cls-1{fill:#143b65;}.cls-2{fill:url(#linear-gradient);}</style><linearGradient id="linear-gradient" x1="94.32" y1="213.94" x2="95.1" y2="24.19" gradientUnits="userSpaceOnUse"><stop offset="0" stop-color="#64b662"/><stop offset="0.3" stop-color="#468863"/><stop offset="0.61" stop-color="#2b5e64"/><stop offset="0.85" stop-color="#1a4565"/><stop offset="1" stop-color="#143b65"/></linearGradient></defs><g id="Layer_2" data-name="Layer 2"><g id="Layer_1-2" data-name="Layer 1"><path class="cls-1" d="M297.91,69.91V149H287.67V74.88L260.57,149H255.3L228.2,74.88V149h-1.81V69.91h10.09l23.34,63.69-.15-.45c.9,2.21,1.7,3.31,2.4,3.31s1.31-.6,1.81-1.8l23.79-64.75Z"/><path class="cls-1" d="M365.82,145.05a8.15,8.15,0,0,1-7.83,4.81c-5.22,0-7.83-2.8-7.83-8.43q-.15-.45-.45-.45c-.2,0-.53.28-1,.83a5.88,5.88,0,0,1-1.13,1.13,19.31,19.31,0,0,1-6.32,5.12,17.65,17.65,0,0,1-8,1.8q-8.6,0-14.31-4.14t-5.72-10.61a11.71,11.71,0,0,1,2.48-7.68,17,17,0,0,1,6.1-4.67,85.44,85.44,0,0,1,9.94-3.61,79.7,79.7,0,0,0,11.82-4.37,14.71,14.71,0,0,0,6.55-6.17v-4.37a18,18,0,0,0-2.94-10.16q-2.93-4.44-9-4.45a13.11,13.11,0,0,0-7.67,2.19,17.43,17.43,0,0,0-4.75,4.59c-1,1.61-2.28,3.76-3.69,6.48L316.58,97q6.63-9.33,21.84-9.33,9.78,0,15.81,4.44a14.51,14.51,0,0,1,6.17,12v36.59a13.25,13.25,0,0,0,.38,3.76,1.61,1.61,0,0,0,1.73,1.21,1.93,1.93,0,0,0,1.8-1.36ZM326.52,144a12.21,12.21,0,0,0,8.28,2.86,15,15,0,0,0,9.79-3.31,16.69,16.69,0,0,0,5.57-8.73V111.47a15.31,15.31,0,0,1-4.74,4.52,83,83,0,0,1-7.76,4.06q-4.82,2.27-7.68,4a15.23,15.23,0,0,0-4.82,4.74,13.6,13.6,0,0,0-2,7.53A9.61,9.61,0,0,0,326.52,144Z"/><path class="cls-1" d="M392.92,149H382.83V69.91h10.09Z"/><path class="cls-1" d="M414.23,80.07a6,6,0,0,1,4.29-10.31,5.59,5.59,0,0,1,4.21,1.73,6.37,6.37,0,0,1,0,8.58,5.55,5.55,0,0,1-4.21,1.73A5.79,5.79,0,0,1,414.23,80.07ZM423.49,149H413.4V88.73h10.09Z"/><path class="cls-1" d="M494.71,149H484.62V111.62q0-10.25-2.49-15T473,91.89a13.78,13.78,0,0,0-9.33,3.92q-4.37,3.91-7,11.74t-2.64,19.28V149H444V88.73h10.09v14.91c0,1.2.25,1.86.75,2,.31,0,.66-.4,1.06-1.21q5.42-16.71,20-16.71,9.78,0,14.22,5.94t4.6,17.55Z"/><path class="cls-1" d="M626.16,149H616.07v-9.18a18.31,18.31,0,0,1-7.76,7.6,24.57,24.57,0,0,1-11.82,2.79,36.52,36.52,0,0,1-19.5-5.42,38.6,38.6,0,0,1-13.85-14.69,43.2,43.2,0,0,1,0-40.5A39.79,39.79,0,0,1,576.77,74.8a34.22,34.22,0,0,1,18.82-5.49,34.79,34.79,0,0,1,13.85,2.78A37.09,37.09,0,0,1,621,80l-6,6.62a20.33,20.33,0,0,0-7.15-11.29,19.47,19.47,0,0,0-12.42-4.22,21.27,21.27,0,0,0-13.78,5.12,34.52,34.52,0,0,0-9.86,13.93,51.29,51.29,0,0,0-3.62,19.65,42.81,42.81,0,0,0,4,18.82,32.56,32.56,0,0,0,10.54,12.88,23.64,23.64,0,0,0,13.78,4.59q8.58,0,14.08-4.82a16,16,0,0,0,5.5-12.65V114a1.87,1.87,0,0,0-2.11-2.11H596.79v-1.81h29.37Z"/><path class="cls-1" d="M682.77,88v6.77a5.81,5.81,0,0,0-2.86-2.1,11.49,11.49,0,0,0-4.21-.76,13.51,13.51,0,0,0-9.26,3.92q-4.31,3.91-7,11.74t-2.71,19.28V149H646.63V88.73h10.09v14.91c0,1.2.25,1.86.75,2,.31,0,.66-.4,1.06-1.21q5.41-16.71,20-16.71A21.33,21.33,0,0,1,682.77,88Z"/><path class="cls-1" d="M746.76,120.2H699q.45,11.6,6.4,18.82t15.89,7.23a20.14,20.14,0,0,0,12.12-4.14,22.57,22.57,0,0,0,8-10.92l2.71,1.51a26.84,26.84,0,0,1-25,17,29.57,29.57,0,0,1-15.51-4.14,29.26,29.26,0,0,1-10.84-11.29,33.08,33.08,0,0,1-.08-31.09,30.21,30.21,0,0,1,10.47-11.3,27.37,27.37,0,0,1,29.06-.07A30.18,30.18,0,0,1,742.85,103a31.16,31.16,0,0,1,3.91,15.35Zm-10.23-1.81A41,41,0,0,0,734,104a26.52,26.52,0,0,0-6.78-10.61,13.25,13.25,0,0,0-18.82,0,27.29,27.29,0,0,0-6.85,10.54A39.73,39.73,0,0,0,699,118.39Z"/><path class="cls-1" d="M810.31,145.05a8.15,8.15,0,0,1-7.83,4.81c-5.23,0-7.83-2.8-7.83-8.43-.11-.3-.26-.45-.46-.45s-.52.28-1,.83a6.18,6.18,0,0,1-1.13,1.13,19.34,19.34,0,0,1-6.33,5.12,17.65,17.65,0,0,1-8,1.8q-8.58,0-14.3-4.14t-5.72-10.61a11.65,11.65,0,0,1,2.48-7.68,17,17,0,0,1,6.1-4.67,85.44,85.44,0,0,1,9.94-3.61,80.14,80.14,0,0,0,11.82-4.37,14.71,14.71,0,0,0,6.55-6.17v-4.37a18,18,0,0,0-2.94-10.16q-2.94-4.44-9-4.45a13.16,13.16,0,0,0-7.68,2.19,17.24,17.24,0,0,0-4.74,4.59,72.13,72.13,0,0,0-3.69,6.48L761.07,97q6.61-9.33,21.83-9.33,9.78,0,15.81,4.44a14.51,14.51,0,0,1,6.17,12v36.59a13.63,13.63,0,0,0,.38,3.76,1.63,1.63,0,0,0,1.73,1.21,1.93,1.93,0,0,0,1.81-1.36ZM771,144a12.17,12.17,0,0,0,8.28,2.86,15,15,0,0,0,9.78-3.31,16.77,16.77,0,0,0,5.58-8.73V111.47A15.35,15.35,0,0,1,789.9,116a81.38,81.38,0,0,1-7.75,4.06,85.26,85.26,0,0,0-7.68,4,15,15,0,0,0-4.82,4.74,13.52,13.52,0,0,0-2,7.53A9.61,9.61,0,0,0,771,144Z"/><path class="cls-1" d="M853.67,143.69a13.35,13.35,0,0,1-5,4.37,16.3,16.3,0,0,1-7.76,1.8q-7.53,0-11-5.27T826.42,131V92.65a1.87,1.87,0,0,0-2.11-2.11H821V88.73a4.56,4.56,0,0,0,4.06-2c.9-1.36,1.36-3.64,1.36-6.85V77h10.24V88.73h8.73v1.81h-6.63a1.86,1.86,0,0,0-2.1,2.11V131c0,5.22.39,9.09,1.2,11.6s2.26,3.76,4.37,3.76a3.27,3.27,0,0,0,3.38-2.41,37.52,37.52,0,0,0,1.43-6.32Z"/><path class="cls-1" d="M869,136.16q6.62,11.6,16.11,11.6a14.45,14.45,0,0,0,9.41-3,9.34,9.34,0,0,0,3.69-7.53q0-4.53-4.14-7.91a72.14,72.14,0,0,0-12.43-7.6c-4.21-2.31-7.53-4.24-9.93-5.8a26.2,26.2,0,0,1-6.18-5.5,10.91,10.91,0,0,1-2.56-7.07,13.13,13.13,0,0,1,6.25-11.45q6.25-4.22,15.74-4.21,16,0,22.58,9.33L902,102.89q-.3-.47-2.26-4.3a16.78,16.78,0,0,0-5.79-6.4,15.57,15.57,0,0,0-8.81-2.56,14.61,14.61,0,0,0-8.89,2.56,8.47,8.47,0,0,0-3.46,7.23,9.56,9.56,0,0,0,4.07,7.83,68.72,68.72,0,0,0,12.34,7.08q6.48,3.32,10.32,5.72a25.61,25.61,0,0,1,6.55,5.87,12.85,12.85,0,0,1,2.71,8.13,12.18,12.18,0,0,1-3,8,20.52,20.52,0,0,1-8.21,5.73,31.3,31.3,0,0,1-11.82,2.1,36.46,36.46,0,0,1-13.85-2.4,19.82,19.82,0,0,1-8.89-6.63Z"/><path class="cls-1" d="M324.72,205.31a17.55,17.55,0,0,0,6,6,15.61,15.61,0,0,0,8.46,2.51,12.62,12.62,0,0,0,8.1-2.51,8.11,8.11,0,0,0-.46-13.18,60.86,60.86,0,0,0-10.57-5.91q-5-2.37-8.05-4.16a19.75,19.75,0,0,1-5.08-4.21,8.45,8.45,0,0,1-2.06-5.63,10,10,0,0,1,4.9-8.74q4.89-3.25,12.4-3.25,12.36,0,17.75,7.23L352.64,177q-5.13-9.71-14.19-9.7a13.65,13.65,0,0,0-7.83,2.33,7.18,7.18,0,0,0-3.43,6.18,6.88,6.88,0,0,0,1.83,4.71,16.93,16.93,0,0,0,4.49,3.53q2.65,1.46,7.5,3.66,5.22,2.37,8.42,4.16a18.68,18.68,0,0,1,5.4,4.44,9.43,9.43,0,0,1,2.2,6.22A9.85,9.85,0,0,1,354.7,209a15.39,15.39,0,0,1-6.46,4.44,25.49,25.49,0,0,1-9.33,1.6,28.64,28.64,0,0,1-10.8-1.92,15.11,15.11,0,0,1-7.05-5.22Z"/><path class="cls-1" d="M421.92,214.46h-6.13v-22.7c0-4.14-.5-7.18-1.51-9.1s-2.85-2.89-5.54-2.89a8.28,8.28,0,0,0-5.31,2,14.92,14.92,0,0,0-4.12,6.08,32.34,32.34,0,0,0-2,10v16.56h-6.13v-22.7c0-4.14-.5-7.18-1.51-9.1s-2.85-2.89-5.54-2.89a8.41,8.41,0,0,0-5.67,2.38,16.47,16.47,0,0,0-4.26,7.14,37.07,37.07,0,0,0-1.6,11.72v13.45h-6.13V177.85h6.13v9.06c0,.74.15,1.13.46,1.19s.39-.24.64-.73q3.29-10.16,12.17-10.16,9.52,0,11.08,9.7v-.27c.12,1,.36,1.46.73,1.46.18,0,.39-.24.64-.73q3.29-10.16,12.17-10.16,6,0,8.65,3.62t2.79,10.66Z"/><path class="cls-1" d="M463.29,212.08a4.94,4.94,0,0,1-4.76,2.93c-3.17,0-4.76-1.7-4.76-5.12-.06-.19-.15-.28-.27-.28s-.32.17-.6.51a3.55,3.55,0,0,1-.68.68,11.68,11.68,0,0,1-3.85,3.11,10.58,10.58,0,0,1-4.85,1.1,14.46,14.46,0,0,1-8.69-2.51,7.66,7.66,0,0,1-3.48-6.46,7.05,7.05,0,0,1,1.51-4.66,10.18,10.18,0,0,1,3.71-2.84,50.79,50.79,0,0,1,6-2.2,48.48,48.48,0,0,0,7.18-2.65,9,9,0,0,0,4-3.76v-2.65A11,11,0,0,0,452,181.1a6.09,6.09,0,0,0-5.45-2.7,8.08,8.08,0,0,0-4.67,1.33,10.55,10.55,0,0,0-2.88,2.79q-1,1.47-2.24,3.94l-3.39-3.57q4-5.69,13.27-5.68,6,0,9.61,2.7a8.85,8.85,0,0,1,3.76,7.28v22.24a8,8,0,0,0,.23,2.29,1,1,0,0,0,1,.73,1.18,1.18,0,0,0,1.1-.82Zm-23.89-.64a7.43,7.43,0,0,0,5,1.74,9.15,9.15,0,0,0,5.95-2,10.17,10.17,0,0,0,3.38-5.31V191.67a9.14,9.14,0,0,1-2.88,2.75,48.19,48.19,0,0,1-4.71,2.47,47.56,47.56,0,0,0-4.67,2.43,9,9,0,0,0-2.93,2.88,8.25,8.25,0,0,0-1.19,4.58A5.85,5.85,0,0,0,439.4,211.44Z"/><path class="cls-1" d="M494.68,177.4v4.11a3.51,3.51,0,0,0-1.73-1.28,7.24,7.24,0,0,0-2.57-.46,8.26,8.26,0,0,0-5.63,2.38,17.06,17.06,0,0,0-4.25,7.14A36.12,36.12,0,0,0,478.85,201v13.45h-6.13V177.85h6.13v9.06c0,.74.15,1.13.46,1.19s.39-.24.64-.73q3.3-10.16,12.17-10.16A12.15,12.15,0,0,1,494.68,177.4Z"/><path class="cls-1" d="M519.85,211.26a8,8,0,0,1-3.06,2.65,9.82,9.82,0,0,1-4.72,1.1c-3.05,0-5.28-1.06-6.68-3.2a14.77,14.77,0,0,1-2.1-8.24V180.23A1.14,1.14,0,0,0,502,179h-2v-1.1a2.77,2.77,0,0,0,2.47-1.23,7.83,7.83,0,0,0,.83-4.17v-1.74h6.22v7.14h5.31V179h-4a1.13,1.13,0,0,0-1.28,1.28v23.34a24.93,24.93,0,0,0,.73,7.05c.49,1.52,1.37,2.29,2.66,2.29a2,2,0,0,0,2.06-1.47,22.87,22.87,0,0,0,.86-3.84Z"/><path class="cls-1" d="M557.1,206.68q4,7,9.79,7a8.74,8.74,0,0,0,5.72-1.83,5.66,5.66,0,0,0,2.25-4.58,6.06,6.06,0,0,0-2.52-4.8,44.19,44.19,0,0,0-7.55-4.62c-2.56-1.41-4.58-2.58-6-3.53A15.48,15.48,0,0,1,555,191a6.64,6.64,0,0,1-1.56-4.3,8,8,0,0,1,3.8-7,16.79,16.79,0,0,1,9.56-2.56q9.71,0,13.73,5.68l-3.39,3.57c-.12-.19-.58-1.06-1.37-2.61a10.22,10.22,0,0,0-3.52-3.89,9.42,9.42,0,0,0-5.36-1.56,8.86,8.86,0,0,0-5.4,1.56,5.15,5.15,0,0,0-2.1,4.39,5.81,5.81,0,0,0,2.47,4.76,41.63,41.63,0,0,0,7.51,4.3q3.93,2,6.26,3.48a15.53,15.53,0,0,1,4,3.57,7.82,7.82,0,0,1,1.64,4.94,7.39,7.39,0,0,1-1.83,4.85,12.29,12.29,0,0,1-5,3.48,19,19,0,0,1-7.18,1.28,22.21,22.21,0,0,1-8.42-1.46,12,12,0,0,1-5.4-4Z"/><path class="cls-1" d="M584.92,177.76h6.23L601,204.85c.55,1.35,1,2,1.47,2s.82-.4,1.19-1.19l10.16-27.92H615l-16.3,44.57a20.76,20.76,0,0,1-3.93,6.5,16,16,0,0,1-5.4,4L587,228l1.37.09a10.48,10.48,0,0,0,5.81-1.56,8.76,8.76,0,0,0,3.53-4.57l2.19-6"/><path class="cls-1" d="M712.6,197h-29q.27,7.05,3.89,11.44a11.87,11.87,0,0,0,9.66,4.4,12.18,12.18,0,0,0,7.36-2.52,13.75,13.75,0,0,0,4.9-6.64l1.65.92a16.36,16.36,0,0,1-15.2,10.34,18,18,0,0,1-9.42-2.52,17.67,17.67,0,0,1-6.59-6.86,20.14,20.14,0,0,1-.05-18.9,18.45,18.45,0,0,1,6.36-6.87,16.64,16.64,0,0,1,17.67,0,18.34,18.34,0,0,1,6.4,6.82,18.94,18.94,0,0,1,2.38,9.33Zm-6.22-1.1a24.89,24.89,0,0,0-1.51-8.74,16.21,16.21,0,0,0-4.12-6.45,8.06,8.06,0,0,0-11.44,0,16.48,16.48,0,0,0-4.16,6.41,24.08,24.08,0,0,0-1.56,8.78Z"/><path class="cls-1" d="M776.85,214.46h-6.13v-22.7c0-4.14-.5-7.18-1.51-9.1s-2.85-2.89-5.53-2.89a8.24,8.24,0,0,0-5.31,2,14.82,14.82,0,0,0-4.12,6.08,32.32,32.32,0,0,0-2,10v16.56H746.1v-22.7c0-4.14-.5-7.18-1.51-9.1s-2.85-2.89-5.54-2.89a8.41,8.41,0,0,0-5.67,2.38,16.47,16.47,0,0,0-4.26,7.14,37.36,37.36,0,0,0-1.6,11.72v13.45h-6.13V177.85h6.13v9.06c0,.74.15,1.13.46,1.19s.4-.24.64-.73q3.3-10.16,12.17-10.16,9.53,0,11.08,9.7v-.27c.12,1,.36,1.46.73,1.46.18,0,.4-.24.64-.73q3.3-10.16,12.17-10.16,6,0,8.65,3.62t2.79,10.66Z"/><path class="cls-1" d="M789.94,206.68q4,7,9.8,7a8.78,8.78,0,0,0,5.72-1.83,5.68,5.68,0,0,0,2.24-4.58,6.06,6.06,0,0,0-2.52-4.8,43.79,43.79,0,0,0-7.55-4.62c-2.56-1.41-4.58-2.58-6-3.53a15.67,15.67,0,0,1-3.75-3.34,6.64,6.64,0,0,1-1.56-4.3,8,8,0,0,1,3.8-7,16.79,16.79,0,0,1,9.56-2.56q9.71,0,13.73,5.68L810,186.46c-.13-.19-.58-1.06-1.38-2.61a10.14,10.14,0,0,0-3.52-3.89,9.41,9.41,0,0,0-5.35-1.56,8.82,8.82,0,0,0-5.4,1.56,5.13,5.13,0,0,0-2.11,4.39,5.81,5.81,0,0,0,2.47,4.76,41.63,41.63,0,0,0,7.51,4.3q3.93,2,6.27,3.48a15.65,15.65,0,0,1,4,3.57,7.77,7.77,0,0,1,1.65,4.94,7.44,7.44,0,0,1-1.83,4.85,12.43,12.43,0,0,1-5,3.48A19.08,19.08,0,0,1,800.1,215a22.24,22.24,0,0,1-8.42-1.46,12,12,0,0,1-5.4-4Z"/><path class="cls-1" d="M673.71,211.26a8.1,8.1,0,0,1-3.07,2.65,9.78,9.78,0,0,1-4.71,1.1c-3.06,0-5.28-1.06-6.69-3.2a14.77,14.77,0,0,1-2.1-8.24V180.23a1.13,1.13,0,0,0-1.28-1.28h-2v-1.1a2.79,2.79,0,0,0,2.48-1.23,8,8,0,0,0,.82-4.17v-1.74h6.22v7.14h5.31V179h-4a1.13,1.13,0,0,0-1.28,1.28v23.34a24.86,24.86,0,0,0,.74,7.05c.48,1.52,1.37,2.29,2.65,2.29a2,2,0,0,0,2.06-1.47,23.77,23.77,0,0,0,.87-3.84Z"/><path class="cls-1" d="M622.27,206.41q4,7.05,9.79,7.05a8.74,8.74,0,0,0,5.72-1.83,5.67,5.67,0,0,0,2.24-4.58,6.11,6.11,0,0,0-2.51-4.81,44.19,44.19,0,0,0-7.55-4.62q-3.86-2.1-6-3.52a15.94,15.94,0,0,1-3.76-3.34,6.65,6.65,0,0,1-1.55-4.3,8,8,0,0,1,3.8-7,16.71,16.71,0,0,1,9.56-2.56q9.71,0,13.73,5.67l-3.39,3.57c-.12-.18-.58-1.05-1.37-2.61a10.24,10.24,0,0,0-3.53-3.89,9.46,9.46,0,0,0-5.35-1.55,8.88,8.88,0,0,0-5.4,1.55,5.16,5.16,0,0,0-2.1,4.4,5.83,5.83,0,0,0,2.47,4.76,42.09,42.09,0,0,0,7.5,4.3c2.62,1.34,4.72,2.5,6.27,3.48a15.27,15.27,0,0,1,4,3.56,7.81,7.81,0,0,1,1.65,4.95A7.41,7.41,0,0,1,644.6,210a12.48,12.48,0,0,1-5,3.48,19,19,0,0,1-7.18,1.28,22,22,0,0,1-8.42-1.47,12,12,0,0,1-5.4-4Z"/><path class="cls-2" d="M184,125.24c-6.1,6.29-24.27,46.48-64.4,60.94-2,.7-7,3.12-10.72,3.52l-1.19-1.1c6.89-2.77,21.64-12.53,26.35-15.82,2.78-1.95,3.36-2.77,6.12-4.82,19.69-14.74,35.6-33.79,44.48-57,6-15.6,6.22-37.62,3.32-53.61-.86-4.76.3-4.19-2.59-6.34-.3,3.49-1.26,5.76-2.12,8.83-5.87,20.92-9.92,36-20.11,56.49-3.87,7.84-11.21,20.67-16.82,27l-14,15.82a15.66,15.66,0,0,1-1.44,1.55,18.51,18.51,0,0,1-2.62,2.33,13.2,13.2,0,0,1-3.56,2.4c.8-3.1,5.39-7.53,8.38-11.49,3.31-4.39,5.67-7.61,8.71-12.17,15.52-23.34,25.47-41.79,31.85-69.63,3.95-17.23,3.87-37-1.65-53.47-1.11-3.3-2.45-7.07-3.83-10.09-.74-1.62-1.41-3.06-2.27-4.68C164,.3,165.3,1.39,162.48,0l-1,28.12c0,9.31-2.33,18.63-3,26.85v0c-.16,7.22-3.05,17.32-4.55,24.29-5.68,26.4-19.3,58.27-35.53,79.88-2.19,2.91-3.67,5.23-5.83,8.1-2.29,3-4.23,5.23-6.67,8.24-1.44,1.77-3.42,3.95-5.65,6.31-2.47-2.34-4.67-4.5-6.28-6.26-2.73-3-4.91-5.2-7.48-8.24-2.42-2.87-4.07-5.19-6.54-8.1C61.78,137.53,46.5,105.65,40.14,79.25c-1.68-7-4.92-17.06-5.1-24.29V55c-.74-8.22-3.4-17.55-3.35-26.85L30.57.05c-3.15,1.39-1.68.3-3.79,3.84-1,1.63-1.71,3.07-2.54,4.69A104,104,0,0,0,20,18.67c-6.19,16.42-6.29,36.24-1.85,53.47,7.15,27.84,18.31,46.29,35.71,69.63,3.41,4.56,6,7.78,9.77,12.17,3.35,4,8.49,8.39,9.39,11.49a15.14,15.14,0,0,1-4-2.4A20.65,20.65,0,0,1,66,160.7a17.84,17.84,0,0,1-1.62-1.55L48.7,143.33c-6.29-6.28-14.51-19.11-18.86-27C18.42,95.85,13.88,80.81,7.3,59.89c-1-3.08-2-5.34-2.38-8.83C1.68,53.21,3,52.63,2,57.4c-3.26,16-3,38,3.72,53.61,10,23.21,27.8,42.25,49.87,57,3.09,2.06,3.75,2.87,6.87,4.82,5.57,3.49,23.71,14.18,30.75,16.23l-.69.71c-4.07.41-11.21-2.71-13.88-3.54-45-14.45-65.37-54.65-72.21-60.93-1.66-1.57-.15-.81-2.61-1.65,2.21,4.2.35,10.71,1.73,16.37C15,179,44.48,191.89,85,197.69c-1,1.13-2,2.2-2.79,3.18A175.67,175.67,0,0,1,57.61,196a116,116,0,0,1-18.47-7.41c-4.68-2.33-11.87-7.33-16.36-8.28C28.06,189.19,31,205.87,53,213a62.92,62.92,0,0,0,26.69,2.21c.06.68.11,1.51.14,2.52-9,1.34-16.26,1.34-28.06,1.34,1.26,4.31,6.27,7.48,10.21,9.77a35,35,0,0,0,18.21,5.22c0,.2,0,.4,0,.62.14-.22.27-.43.39-.64A34.27,34.27,0,0,0,89,232.84a16.88,16.88,0,0,0,10.84,3.76,20.36,20.36,0,0,0,12.51-3.29,25.88,25.88,0,0,0,9.74.46c.21.31.43.64.68,1,0-.37.06-.73.1-1.1a31.06,31.06,0,0,0,11.59-4.83c3.51-2.29,8-5.46,9.11-9.76a181.13,181.13,0,0,1-20.36-.7c0-1.12.09-2,.15-2.74A48.05,48.05,0,0,0,142.46,213c19.63-7.16,22.26-23.84,27-32.71-4,.95-10.42,5.95-14.59,8.28A96.69,96.69,0,0,1,138.37,196,149.37,149.37,0,0,1,120,200.31c-.94-1-2-2-3.15-3.15,34.66-6,59.81-19.27,68-57.2,1.23-5.66-.43-12.16,1.54-16.37C184.13,124.43,185.48,123.67,184,125.24Z"/></g></g></svg>